<svg id="Layer_1" enable-background="new 0 0 512 512" height="512" viewBox="0 0 512 512" width="512" xmlns="http://www.w3.org/2000/svg"><g id="XMLID_119_"><path id="XMLID_322_" d="m142.325 386.925c-1.513 0-3 .106-4.462.289-8.005-16.026-24.565-27.034-43.697-27.034-21.677 0-40.052 14.13-46.423 33.681-1.796-.31-3.639-.481-5.523-.481-17.795 0-32.22 14.425-32.22 32.22s14.425 32.22 32.22 32.22c8.964 0 17.07-3.663 22.911-9.571 8.115 6.013 18.159 9.571 29.035 9.571 9.645 0 18.637-2.798 26.208-7.626 6.038 4.77 13.659 7.626 21.951 7.626 19.577 0 35.447-15.87 35.447-35.447s-15.87-35.448-35.447-35.448z" fill="#99ebfa"/><g id="XMLID_76_"><path id="XMLID_78_" d="m256 10.014h-18.346c-87 0-157.527 70.527-157.527 157.527 0 37.506 13.382 73.781 37.739 102.301l109.461 128.172h28.673.127v-388h-.127z" fill="#ff7d97"/><path id="XMLID_77_" d="m394.388 269.842c24.357-28.52 37.739-64.795 37.739-102.301 0-87-70.527-157.527-157.527-157.527h-18.473v388h28.8z" fill="#66e0f7"/></g><path id="XMLID_1446_" d="m256 501.986c-22.091 0-40-17.909-40-40v-24h80v24c0 22.091-17.909 40-40 40z" fill="#ffcd69"/><g id="XMLID_1440_"><path id="XMLID_1442_" d="m168.127 98.015c0 84.22 17.051 167.568 50.124 245.022l23.476 54.978h14.273v-387.999c-48.542.069-87.873 39.44-87.873 87.999z" fill="#d5ea79"/><path id="XMLID_1441_" d="m294.003 343.037c33.073-77.454 50.124-160.802 50.124-245.022 0-48.601-39.399-88-88-88-.042 0-.084.002-.127.002v387.998h14.527z" fill="#ffcd69"/><path id="XMLID_53_" d="m152.173 310.014 75.154 88h28.673 28.927l75.154-88z" fill="#fff"/></g><path id="XMLID_325_" d="m461.786 262.29c-1.716 0-3.403.12-5.062.328-9.082-18.181-27.868-30.67-49.573-30.67-24.592 0-45.437 16.03-52.666 38.21-2.037-.352-4.128-.546-6.266-.546-20.187 0-36.552 16.365-36.552 36.552s16.365 36.552 36.552 36.552c10.169 0 19.366-4.156 25.992-10.859 9.206 6.822 20.601 10.859 32.939 10.859 10.942 0 21.143-3.175 29.733-8.651 6.85 5.412 15.496 8.651 24.903 8.651 22.21 0 40.214-18.004 40.214-40.214s-18.004-40.212-40.214-40.212z" fill="#99ebfa"/><g id="XMLID_399_"><path id="XMLID_439_" d="m143.494 376.94c-10.786-16.658-29.14-26.759-49.328-26.759-22.862 0-43.268 13.065-52.972 33.211-22.809.546-41.194 19.27-41.194 42.208 0 23.28 18.939 42.22 42.22 42.22 8.564 0 16.729-2.528 23.654-7.235 8.626 4.753 18.271 7.235 28.292 7.235 8.973 0 17.749-2.03 25.727-5.914 6.801 3.886 14.441 5.914 22.433 5.914 25.06 0 45.447-20.387 45.447-45.447-.001-24.668-19.758-44.81-44.279-45.433zm-1.169 70.879c-5.774 0-11.221-1.892-15.751-5.472-1.81-1.43-4.001-2.154-6.201-2.154-1.862 0-3.729.519-5.375 1.568-6.216 3.963-13.419 6.058-20.833 6.058-8.385 0-16.366-2.63-23.082-7.606-4-2.962-9.566-2.535-13.065 1.004-4.209 4.257-9.82 6.602-15.8 6.602-12.252 0-22.22-9.968-22.22-22.22s9.968-22.22 22.22-22.22c1.246 0 2.532.113 3.821.335 4.895.847 9.67-2.031 11.209-6.755 5.22-16.018 20.055-26.779 36.916-26.779 14.81 0 28.125 8.239 34.751 21.503 1.896 3.797 5.979 5.986 10.195 5.453 1.129-.142 2.18-.211 3.213-.211 14.032 0 25.447 11.416 25.447 25.447.002 14.032-11.413 25.447-25.445 25.447z"/><path id="XMLID_455_" d="m462.367 252.293c-7.471-11.815-18.338-20.728-30.985-25.743 7.125-18.87 10.745-38.667 10.745-59.01 0-10.06-.9-20.143-2.675-29.968-.981-5.434-6.186-9.044-11.618-8.063-5.436.982-9.045 6.184-8.063 11.619 1.563 8.655 2.356 17.542 2.356 26.413 0 18.85-3.522 37.169-10.465 54.564-1.494-.101-2.997-.156-4.512-.156-25.696 0-48.6 14.845-59.238 37.665-5.419.035-10.618 1.009-15.451 2.754 14.389-53.523 21.666-108.598 21.666-164.353 0-26.894-10.892-51.289-28.492-69.014 21.247 7.8 40.547 20.531 56.598 37.646 3.777 4.029 10.106 4.23 14.135.454 4.028-3.778 4.231-10.106.453-14.135-31.558-33.651-76.104-52.952-122.22-52.952h-36.947c-92.375 0-167.527 75.152-167.527 167.527 0 39.853 14.253 78.49 40.134 108.795l107.065 125.367v26.283h-1.326c-5.523 0-10 4.477-10 10v24c0 27.57 22.43 50 50 50s50-22.43 50-50v-24c0-5.523-4.478-10-10-10h-1.327v-25.984l43.109-50.478c3.358.772 6.848 1.194 10.437 1.194 9.724 0 18.98-2.957 26.759-8.447 9.771 5.547 20.752 8.447 32.173 8.447 10.215 0 20.2-2.367 29.238-6.89 7.667 4.525 16.328 6.89 25.397 6.89 27.688 0 50.214-22.526 50.214-50.214 0-27.494-22.212-49.898-49.633-50.211zm-162.424 47.721h-33.816v-279.336c38.301 4.927 68 37.718 68 77.338 0 68.995-11.499 136.915-34.184 201.998zm-87.632 0c-22.686-65.084-34.184-133.005-34.184-202 0-39.619 29.699-72.41 68-77.337v279.337zm-122.184-132.473c0-63.346 40.134-117.49 96.308-138.352-17.492 17.71-28.308 42.027-28.308 68.827 0 68.92 11.112 136.802 33.044 201.999h-34.388l-31.314-36.667c-22.79-26.687-35.342-60.712-35.342-95.807zm195.873 294.445c0 16.542-13.458 30-30 30s-30-13.458-30-30v-14h60zm-48.673-34v-19.972h37.346v19.972zm42.99-39.972h-48.38l-58.073-68h129.906c2.798 8.961 8.244 16.759 15.408 22.496zm181.469-55.296c-6.855 0-13.323-2.247-18.704-6.498-1.81-1.429-4.001-2.153-6.2-2.153-1.861 0-3.729.519-5.375 1.568-7.269 4.634-15.69 7.083-24.356 7.083-9.803 0-19.135-3.075-26.985-8.893-3.999-2.962-9.567-2.535-13.065 1.004-5.029 5.087-11.734 7.889-18.881 7.889-14.641 0-26.552-11.911-26.552-26.552s11.911-26.553 26.552-26.553c1.49 0 3.025.135 4.563.4 4.894.847 9.671-2.031 11.211-6.755 6.104-18.727 23.447-31.309 43.158-31.309 17.314 0 32.882 9.632 40.627 25.139 1.896 3.796 5.979 5.982 10.193 5.453 1.342-.168 2.59-.25 3.815-.25 16.66 0 30.214 13.554 30.214 30.214s-13.555 30.213-30.215 30.213z"/><path id="XMLID_868_" d="m415.319 106.68c2.641 0 5.211-1.07 7.07-2.93 1.87-1.87 2.93-4.44 2.93-7.07 0-2.64-1.06-5.21-2.93-7.07-1.859-1.87-4.43-2.93-7.07-2.93-2.63 0-5.21 1.06-7.069 2.93-1.86 1.86-2.931 4.43-2.931 7.07 0 2.63 1.07 5.21 2.931 7.07 1.87 1.86 4.439 2.93 7.069 2.93z"/></g></g></svg>