<svg id="Layer_1" enable-background="new 0 0 512.094 512.094" height="512" viewBox="0 0 512.094 512.094" width="512" xmlns="http://www.w3.org/2000/svg"><g id="XMLID_169_"><g id="XMLID_586_"><circle id="XMLID_655_" cx="256" cy="256.094" fill="#fff" r="246"/></g><g id="XMLID_414_"><circle id="XMLID_654_" cx="256" cy="256.094" fill="#ffcd69" r="192"/></g><g id="XMLID_1023_"><path id="XMLID_636_" d="m203.275 198.119c-13.212 13.212-34.632 13.212-47.844 0l-31.373-31.373c-13.212-13.212-13.212-34.632 0-47.844 13.212-13.212 34.632-13.212 47.844 0l31.373 31.373c13.212 13.212 13.212 34.632 0 47.844z" fill="#ffa96b"/></g><g id="XMLID_1025_"><path d="m188.9 371.959c6.399 0 12.564-.992 18.358-2.822 15.513 16.57 37.569 26.938 62.058 26.938 46.953 0 85.016-38.063 85.016-85.017s-38.063-85.016-85.016-85.016c-24.489 0-46.545 10.369-62.058 26.938-5.794-1.83-11.96-2.822-18.358-2.822-33.635 0-60.9 27.266-60.9 60.9s27.266 60.901 60.9 60.901z" fill="#fff"/></g><g id="XMLID_1026_"><circle id="XMLID_622_" cx="269.317" cy="311.059" fill="#ffcd69" r="41.649"/></g><g id="XMLID_319_"><path id="XMLID_621_" d="m259.28 164.387c-13.212 13.212-34.632 13.212-47.844 0l-31.373-31.373c-13.212-13.212-13.212-34.632 0-47.844 13.212-13.212 34.632-13.212 47.844 0l31.373 31.373c13.212 13.212 13.212 34.632 0 47.844z" fill="#ffa96b"/></g><g id="XMLID_1024_"><path id="XMLID_620_" d="m378.849 108.994c18.939 18.939 18.939 49.644 0 68.583s-49.644 18.939-68.583 0z" fill="#ff7d97"/></g><g id="XMLID_1022_"><path id="XMLID_603_" d="m411.189 145.901c18.939 18.939 18.939 49.644 0 68.583s-49.644 18.939-68.583 0z" fill="#ff7d97"/></g><g id="XMLID_656_"><path id="XMLID_657_" d="m466.989 111.036c-3.135-4.547-9.357-5.693-13.909-2.56-4.547 3.134-5.693 9.361-2.56 13.909 64.523 93.631 52.897 220.045-27.644 300.586-92.016 92.017-241.738 92.017-333.754 0-44.574-44.575-69.122-103.839-69.122-166.877s24.548-122.303 69.123-166.877c80.539-80.54 206.955-92.167 300.585-27.644 4.547 3.132 10.773 1.988 13.909-2.56 3.134-4.547 1.987-10.774-2.56-13.909-101.579-70-238.714-57.394-326.077 29.97-48.351 48.352-74.98 112.639-74.98 181.02 0 68.38 26.629 132.667 74.98 181.019 48.353 48.352 112.64 74.981 181.02 74.981s132.667-26.629 181.02-74.98c87.365-87.366 99.968-224.501 29.969-326.078z"/><path id="XMLID_660_" d="m256 54.094c-111.383 0-202 90.617-202 202s90.617 202 202 202 202-90.617 202-202-90.617-202-202-202zm115.777 116.411c-12.563 12.564-31.724 14.612-46.438 6.14l52.578-52.578c8.471 14.714 6.425 33.874-6.14 46.438zm38.481-9.531c8.471 14.713 6.425 33.874-6.14 46.438-7.271 7.271-16.938 11.275-27.221 11.275-6.858 0-13.444-1.782-19.227-5.126zm-214.055 30.074c-4.501 4.501-10.484 6.98-16.851 6.98-6.365 0-12.35-2.479-16.851-6.98l-31.372-31.373c-4.501-4.501-6.98-10.485-6.98-16.851s2.479-12.35 6.98-16.851c8.727-8.728 22.308-9.339 31.736-1.742 2.121 5.787 5.489 11.217 10.126 15.854l29.786 29.785c1.408 7.666-1.005 15.61-6.574 21.178zm22.305-33.732-31.373-31.373c-9.292-9.292-9.292-24.41 0-33.702 4.501-4.501 10.485-6.98 16.851-6.98s12.35 2.479 16.851 6.98l31.373 31.373c4.501 4.501 6.98 10.485 6.98 16.851 0 6.365-2.479 12.35-6.98 16.851-9.292 9.292-24.411 9.292-33.702 0zm37.492 280.778c-100.355 0-182-81.645-182-182 0-37.892 11.645-73.112 31.537-102.281 1.929 7.502 5.829 14.383 11.45 20.005l31.372 31.373c8.545 8.545 19.77 12.817 30.993 12.817 11.225 0 22.449-4.272 30.994-12.817 6.335-6.336 10.456-14.343 12.067-22.865 4.21 1.294 8.577 1.95 12.945 1.95 11.224 0 22.448-4.272 30.993-12.817 8.278-8.279 12.838-19.286 12.838-30.993 0-11.708-4.56-22.715-12.838-30.993l-31.373-31.373c-.865-.865-1.766-1.679-2.688-2.462 7.762-1.014 15.675-1.544 23.709-1.544 40.405 0 77.771 13.242 108.002 35.604l-60.808 60.808c-3.905 3.905-3.905 10.237 0 14.143 10.269 10.268 23.685 16.241 38.071 17.034l-5.73 5.73c-3.905 3.905-3.905 10.237 0 14.142 11.049 11.049 25.738 17.133 41.362 17.133 15.625 0 30.314-6.084 41.363-17.133 5.244-5.244 9.267-11.249 12.099-17.658 4.961 16.542 7.64 34.061 7.64 52.197.002 100.355-81.642 182-181.998 182z"/><path id="XMLID_680_" d="m269.318 259.41c-28.479 0-51.649 23.169-51.649 51.648s23.17 51.649 51.649 51.649 51.648-23.169 51.648-51.649c0-28.478-23.169-51.648-51.648-51.648zm0 83.298c-17.451 0-31.649-14.198-31.649-31.649s14.198-31.648 31.649-31.648 31.648 14.197 31.648 31.648-14.197 31.649-31.648 31.649z"/><path id="XMLID_683_" d="m269.318 216.043c-24.134 0-47.513 9.333-65.053 25.792-5.029-1.114-10.175-1.676-15.364-1.676-39.095 0-70.9 31.806-70.9 70.9 0 39.095 31.806 70.9 70.9 70.9 5.189 0 10.335-.563 15.364-1.676 17.54 16.46 40.919 25.792 65.053 25.792 52.392 0 95.016-42.625 95.016-95.017s-42.625-95.015-95.016-95.015zm0 170.033c-20.959 0-40.406-8.442-54.759-23.772-1.921-2.052-4.578-3.166-7.301-3.166-1.006 0-2.021.152-3.01.465-4.955 1.564-10.118 2.357-15.348 2.357-28.066 0-50.9-22.834-50.9-50.9s22.834-50.9 50.9-50.9c5.229 0 10.393.793 15.348 2.357 3.667 1.16 7.681.109 10.311-2.701 14.353-15.33 33.8-23.772 54.759-23.772 41.363 0 75.016 33.652 75.016 75.016s-33.653 75.016-75.016 75.016z"/><path id="XMLID_684_" d="m429.95 92.143c2.63 0 5.21-1.07 7.069-2.93 1.86-1.86 2.931-4.44 2.931-7.07s-1.07-5.21-2.931-7.07c-1.859-1.86-4.439-2.93-7.069-2.93-2.641 0-5.21 1.07-7.07 2.93s-2.93 4.44-2.93 7.07 1.069 5.21 2.93 7.07c1.86 1.861 4.439 2.93 7.07 2.93z"/></g></g></svg>