<svg id="Layer_1" enable-background="new 0 0 512 512" height="512" viewBox="0 0 512 512" width="512" xmlns="http://www.w3.org/2000/svg"><g id="XMLID_342_"><g id="XMLID_1018_"><path id="XMLID_831_" d="m141.129 194c0 15.906 12.894 28.8 28.8 28.8s28.8-12.894 28.8-28.8c0-79.529-12.894-144-28.8-144-15.906 0-28.8 64.471-28.8 144z" fill="#ff7d97"/></g><g id="XMLID_1030_"><g id="XMLID_1031_"><path id="XMLID_8_" d="m169.929 50c15.906 0 28.8 64.471 28.8 144 0 15.906 12.894 28.8 28.8 28.8s28.8-12.894 28.8-28.8c0-79.529-38.683-144-86.4-144z" fill="#fff"/></g><g id="XMLID_1032_"><path id="XMLID_9_" d="m169.929 50c-47.718 0-86.4 64.471-86.4 144 0 15.906 12.894 28.8 28.8 28.8s28.8-12.894 28.8-28.8c0-79.529 12.894-144 28.8-144z" fill="#fff"/></g></g><g id="XMLID_1020_"><g id="XMLID_1021_"><path id="XMLID_10_" d="m169.929 50c-79.529 0-144 64.471-144 144 0 15.906 12.894 28.8 28.8 28.8s28.8-12.894 28.8-28.8c0-79.529 38.682-144 86.4-144z" fill="#33d6f5"/></g><g id="XMLID_1027_"><path id="XMLID_11_" d="m169.929 50c47.717 0 86.4 64.471 86.4 144 0 15.906 12.894 28.8 28.8 28.8s28.8-12.894 28.8-28.8c0-79.529-64.471-144-144-144z" fill="#33d6f5"/></g></g><g id="XMLID_778_"><circle id="XMLID_830_" cx="453.991" cy="58" fill="#ffcd69" r="48"/></g><g id="XMLID_776_"><path id="XMLID_828_" d="m355.105 443.221 58.755 58.779h51.123l-47.004-58.779z" fill="#ffcd69"/></g><g id="XMLID_1975_"><g id="XMLID_1976_"><path id="XMLID_12_" d="m475.868 443.221h-380.206l-78.019-78.019c-10.202-10.202-10.202-26.743 0-36.945 10.202-10.202 26.743-10.202 36.945 0l62.716 62.716h358.563c14.428 0 26.124 11.696 26.124 26.124 0 14.428-11.696 26.124-26.123 26.124z" fill="#ffda8f"/></g></g><g id="XMLID_1974_"><path id="XMLID_582_" d="m157.369 443.221-58.755 58.779h-51.123l47.004-58.779z" fill="#ffcd69"/></g><g id="XMLID_832_"><path id="XMLID_835_" d="m475.867 380.974h-100.543c-5.522 0-10 4.477-10 10s4.478 10 10 10h100.543c8.891 0 16.124 7.233 16.124 16.124s-7.233 16.124-16.124 16.124h-120.752c-.005 0-.01 0-.015 0h-255.296l-75.09-75.089c-6.287-6.287-6.287-16.517 0-22.804 3.045-3.045 7.094-4.722 11.401-4.722s8.356 1.677 11.401 4.722l62.716 62.716c1.875 1.875 4.419 2.929 7.071 2.929h168.021c5.522 0 10-4.477 10-10s-4.478-10-10-10h-105.395v-149.487c7.349-1.962 13.846-6.029 18.8-11.518 7.106 7.873 17.384 12.831 28.8 12.831s21.694-4.958 28.8-12.831c7.106 7.873 17.384 12.831 28.8 12.831 21.395 0 38.8-17.406 38.8-38.8 0-84.916-69.084-154-154-154s-154 69.084-154 154c0 21.394 17.406 38.8 38.8 38.8 11.416 0 21.694-4.958 28.8-12.831 7.106 7.873 17.384 12.831 28.8 12.831s21.694-4.958 28.8-12.831c4.954 5.489 11.451 9.555 18.8 11.518v149.487h-38.483l-59.787-59.788c-6.823-6.823-15.895-10.58-25.544-10.58s-18.721 3.757-25.544 10.581c-14.084 14.084-14.084 37.002 0 51.087l71.042 71.042-41.933 52.438c-2.4 3.002-2.868 7.114-1.203 10.579 1.666 3.464 5.169 5.667 9.013 5.667h51.123c2.653 0 5.197-1.054 7.072-2.93l54.243-54.265v47.195c0 5.523 4.477 10 10 10s10-4.477 10-10v-48.779h171.033l55.825 55.849c1.875 1.876 4.419 2.93 7.072 2.93h51.123c3.844 0 7.348-2.203 9.013-5.667s1.198-7.577-1.203-10.579l-34.013-42.533h37.088c19.919 0 36.124-16.205 36.124-36.124.001-19.918-16.204-36.123-36.123-36.123zm-330.15-313.895c-2.189 6.494-4.168 14.185-5.958 23.136-4.589 22.942-7.472 52.032-8.344 83.451h-37.002c2.539-28.909 10.484-55.489 22.997-76.345 8.269-13.782 17.921-24.01 28.307-30.242zm12.42 33.636c4.436-25.241 9.289-35.306 11.792-39.067 2.503 3.761 7.356 13.826 11.792 39.067 3.621 20.6 5.934 45.967 6.712 72.951h-37.008c.778-26.984 3.091-52.351 6.712-72.951zm41.962-10.5c-1.79-8.952-3.769-16.642-5.958-23.136 10.386 6.232 20.038 16.46 28.307 30.242 12.514 20.856 20.459 47.436 22.997 76.345h-37.002c-.872-31.419-3.755-60.509-8.344-83.451zm27.43 122.585c-10.367 0-18.8-8.434-18.8-18.8 0-.112-.002-.222-.002-.333h37.597c0 .112.005.222.005.333 0 10.366-8.434 18.8-18.8 18.8zm57.6 0c-10.366 0-18.8-8.434-18.8-18.8 0-.112-.005-.222-.005-.333h37.6c0 .111.004.222.004.333.001 10.366-8.433 18.8-18.799 18.8zm17.26-39.133h-36.899c-2.642-32.584-11.591-62.8-25.892-86.635-2.572-4.286-5.279-8.29-8.099-12.023 37.245 19.35 64.318 55.673 70.89 98.658zm-194.03-98.659c-2.82 3.733-5.527 7.737-8.099 12.023-14.301 23.835-23.25 54.05-25.891 86.635h-36.9c6.571-42.984 33.644-79.307 70.89-98.658zm-53.63 137.792c-10.366 0-18.8-8.434-18.8-18.8 0-.112.004-.222.004-.333h37.601c0 .112-.005.222-.005.333 0 10.366-8.434 18.8-18.8 18.8zm57.6 0c-10.366 0-18.8-8.434-18.8-18.8 0-.112.005-.222.005-.333h37.597c0 .112-.002.222-.002.333 0 10.366-8.433 18.8-18.8 18.8zm38.8-18.8c0-.111.001-.222.001-.333h37.597c0 .111.001.222.001.333 0 10.366-8.434 18.8-18.8 18.8s-18.799-8.434-18.799-18.8zm-56.659 298h-26.178l31.01-38.779h33.931zm349.712 0h-26.179l-38.763-38.779h33.931z"/><path id="XMLID_873_" d="m453.991 116c31.981 0 58-26.019 58-58s-26.019-58-58-58-58 26.019-58 58 26.019 58 58 58zm0-96c20.953 0 38 17.047 38 38s-17.047 38-38 38-38-17.047-38-38 17.047-38 38-38z"/><path id="XMLID_874_" d="m320.322 390.97c0 2.64 1.069 5.21 2.93 7.07 1.86 1.87 4.44 2.93 7.07 2.93 2.64 0 5.21-1.06 7.069-2.93 1.87-1.86 2.931-4.43 2.931-7.07 0-2.63-1.061-5.21-2.931-7.07-1.859-1.86-4.43-2.93-7.069-2.93-2.63 0-5.21 1.07-7.07 2.93s-2.93 4.44-2.93 7.07z"/></g></g></svg>