<svg id="Layer_1" enable-background="new 0 0 512 512" height="512" viewBox="0 0 512 512" width="512" xmlns="http://www.w3.org/2000/svg"><g id="XMLID_146_"><path id="XMLID_996_" d="m208 417.5 48 68.5 48-68.5v-323.93c0-34.41-18.277-66.231-48-83.57-29.723 17.338-48 49.159-48 83.57z" fill="#fff"/><g fill="#33d6f5"><path id="XMLID_995_" d="m304 268.501 198 53.395v-49.667l-198-109.901z"/><path id="XMLID_994_" d="m208 268.501-198 53.395v-49.667l198-109.901z"/><path id="XMLID_993_" d="m304 417.5 80 15.478v35.522h-110.206z"/><path id="XMLID_992_" d="m208 417.5-80 15.478v35.522h110.206z"/></g><path id="XMLID_991_" d="m392 209.668v-36.459c0-12.15-9.85-22-22-22-12.15 0-22 9.85-22 22v12.472z" fill="#c5d3de"/><path id="XMLID_989_" d="m480 257.168v-34.959c0-12.15-9.85-22-22-22-12.15 0-22 9.85-22 22v12.472z" fill="#c5d3de"/><path id="XMLID_987_" d="m120 209.668v-36.459c0-12.15 9.85-22 22-22 12.15 0 22 9.85 22 22v12.472z" fill="#c5d3de"/><path id="XMLID_860_" d="m32 257.168v-34.959c0-12.15 9.85-22 22-22 12.15 0 22 9.85 22 22v12.472z" fill="#c5d3de"/><g id="XMLID_430_"><path id="XMLID_466_" d="m506.854 263.486-16.854-9.355v-31.922c0-17.645-14.355-32-32-32-16.464 0-30.059 12.499-31.806 28.506l-24.194-13.429v-32.077c0-17.645-14.355-32-32-32-16.513 0-30.144 12.574-31.824 28.651l-24.176-13.419v-62.871c0-37.819-20.294-73.151-52.961-92.208-3.115-1.816-6.963-1.816-10.078 0-32.667 19.056-52.961 54.388-52.961 92.208v62.871l-24.176 13.419c-1.68-16.077-15.311-28.651-31.824-28.651-17.645 0-32 14.355-32 32v32.077l-24.194 13.429c-1.747-16.007-15.342-28.506-31.806-28.506-17.645 0-32 14.355-32 32v31.922l-16.854 9.355c-3.175 1.763-5.146 5.111-5.146 8.743v49.667c0 3.112 1.448 6.046 3.919 7.938 1.765 1.352 3.906 2.062 6.081 2.062.87 0 1.745-.113 2.604-.345l185.396-49.995v127.694l-71.899 13.911c-4.703.91-8.101 5.027-8.101 9.818v35.521c0 5.523 4.478 10 10 10h110.206c.107 0 .21-.013.316-.016l7.478 10.671v12.845c0 5.523 4.478 10 10 10s10-4.477 10-10v-12.845l7.478-10.671c.106.003.209.016.316.016h110.206c5.522 0 10-4.477 10-10v-35.522c0-4.791-3.397-8.908-8.101-9.818l-71.899-13.911v-127.693l42.945 11.581c.872.235 1.747.347 2.609.347 4.409 0 8.446-2.938 9.649-7.399 1.438-5.332-1.719-10.821-7.052-12.259l-48.151-12.985v-81.525l178 98.8v30.726l-42.943-11.581c-5.333-1.438-10.82 1.719-12.259 7.052-1.438 5.332 1.719 10.821 7.052 12.259l55.547 14.979c.858.231 1.733.345 2.604.345 2.175 0 4.316-.71 6.081-2.062 2.471-1.893 3.919-4.827 3.919-7.938v-49.667c-.001-3.632-1.972-6.98-5.147-8.743zm-250.854-241.67c23.579 16.042 38 43.014 38 71.754v320.775l-28 39.958v-23.637c0-5.523-4.478-10-10-10s-10 4.477-10 10v23.637l-28-39.958v-320.775c0-28.74 14.421-55.712 38-71.754zm-126 151.393c0-6.617 5.383-12 12-12s12 5.383 12 12v7.654l-24 13.321zm-88 49c0-6.617 5.383-12 12-12s12 5.383 12 12v7.5l-24 13.321zm-22 86.633v-30.726l178-98.8v81.525zm118 149.658v-17.271l65.532-12.679 20.987 29.95zm236 0h-86.519l20.987-29.95 65.532 12.679zm72-236.291c0-6.617 5.383-12 12-12s12 5.383 12 12v20.821l-24-13.321zm-88-49c0-6.617 5.383-12 12-12s12 5.383 12 12v20.976l-24-13.321z"/><path id="XMLID_972_" d="m248.127 105h16c5.522 0 10-4.477 10-10s-4.478-10-10-10h-16c-5.522 0-10 4.477-10 10s4.477 10 10 10z"/><path id="XMLID_1000_" d="m403 285.2c-2.63 0-5.21 1.07-7.07 2.93s-2.93 4.43-2.93 7.07c0 2.63 1.069 5.21 2.93 7.07 1.86 1.86 4.44 2.93 7.07 2.93s5.21-1.07 7.069-2.93c1.86-1.86 2.931-4.44 2.931-7.07s-1.07-5.21-2.931-7.07c-1.859-1.86-4.439-2.93-7.069-2.93z"/></g></g></svg>